<svg width="447" height="90" viewBox="0 0 447 90" fill="none" xmlns="http://www.w3.org/2000/svg">
<g clip-path="url(#clip0_807_2856)">
<path d="M175.831 54.8237C172.527 55.7385 165.354 57.4375 158.05 57.4375C142.573 57.4375 131.14 46.6773 131.14 28.947C131.14 11.2167 142.573 0.456543 158.05 0.456543C165.006 0.456543 170.397 1.63275 175.353 2.7654L175.135 15.8344H172.962L168.18 6.94749C165.223 5.33564 161.528 4.33368 158.18 4.33368C145.834 4.33368 140.095 14.484 140.095 28.947C140.095 43.41 145.79 53.5603 158.18 53.5603C161.528 53.5603 165.832 52.5584 168.658 50.6416L173.44 42.0596H175.614L175.831 54.8237Z" fill="#1D1E1C"/>
<path d="M222.305 53.5166V56.0869H210.175L209.784 50.685C208.306 53.778 204.089 57.4809 197.655 57.4809C190.003 57.4809 184.83 52.9939 184.83 46.3287C184.83 36.9625 195.307 31.9963 209.089 31.9963C209.176 25.5925 205.002 21.9332 198.698 21.9332C193.699 21.9332 190.482 24.7212 188.612 27.7271L185.873 25.636C188.134 21.0619 192.612 17.4897 200.046 17.4897C210.306 17.4897 216.175 24.2856 216.175 33.826V51.4691L222.348 53.473L222.305 53.5166ZM206.045 1.10986H207.132L209.48 6.38103L192.395 13.3512L191.308 10.8681L206.002 1.10986H206.045ZM209.089 35.3071C198.524 35.7863 192.655 39.4892 192.655 45.893C192.655 50.5979 195.481 53.081 199.872 53.081C205.132 53.081 209.089 48.8989 209.089 43.2357V35.2636V35.3071Z" fill="#1D1E1C"/>
<path d="M273.908 53.5167V56.0869H254.649V53.5167L260.692 51.5128V31.2122C260.692 25.3312 257.649 21.6718 252.258 21.6718C247.563 21.6718 244.346 25.0698 243.259 29.5568V51.4692L249.432 53.4731V56.0433H230.173V53.4731L236.216 51.4692V23.4579L230.565 21.5411V18.9709L242.998 18.5788L243.216 23.3708C245.085 19.8857 249.171 17.4897 254.258 17.4897C262.475 17.4897 267.735 22.5867 267.735 29.8617V51.4692L273.908 53.4731V53.5167Z" fill="#1D1E1C"/>
<path d="M301.079 17.5332C312.513 17.5332 320.556 26.4201 320.556 37.1803C320.556 48.6375 312.339 57.4808 301.079 57.4808C289.82 57.4808 281.342 48.2018 281.342 37.1803C281.342 26.1588 289.646 17.5332 301.079 17.5332ZM301.079 53.9086C309.079 53.9086 312.339 46.3286 312.339 37.1803C312.339 28.032 308.731 21.0618 301.079 21.0618C292.776 21.0618 289.559 28.032 289.559 37.1803C289.559 46.3286 292.689 53.9086 301.079 53.9086Z" fill="#1D1E1C"/>
<path d="M367.595 21.454L361.422 23.4579L348.118 56.4354H343.597L330.903 23.4579L324.86 21.454V18.8838H344.119V21.454L338.467 23.3273L347.379 48.5505L357.161 23.4579L351.118 21.454V18.8838H367.551V21.454H367.595Z" fill="#1D1E1C"/>
<path d="M409.765 53.5167V56.0869H397.635L397.244 50.685C395.766 53.778 391.549 57.4809 385.115 57.4809C377.463 57.4809 372.29 52.9939 372.29 46.3287C372.29 36.9626 382.767 31.9964 396.549 31.9964C396.635 25.5925 392.462 21.9332 386.158 21.9332C381.159 21.9332 377.942 24.7213 376.072 27.7271L373.333 25.6361C375.594 21.0619 380.072 17.4897 387.506 17.4897C397.766 17.4897 403.635 24.2856 403.635 33.826V51.4692L409.808 53.4731L409.765 53.5167ZM396.549 35.3072C385.984 35.7864 380.115 39.4893 380.115 45.8931C380.115 50.5979 382.941 53.081 387.332 53.081C392.592 53.081 396.549 48.8989 396.549 43.2357V35.2636V35.3072Z" fill="#1D1E1C"/>
<path d="M417.59 54.4314L417.764 43.7584H420.198L422.85 51.0334C424.893 53.0374 427.763 54.1264 430.676 54.1264C436.24 54.1264 439.588 51.5562 439.588 47.4612C439.588 42.9742 434.806 41.3624 430.284 39.9683C423.633 37.9644 418.633 34.9586 418.633 28.6854C418.633 21.7153 424.328 17.5332 433.284 17.5332C437.892 17.5332 441.718 18.448 444.457 19.4064V29.9488H442.022L439.196 22.4559C437.718 21.5846 435.458 20.844 433.11 20.844C429.371 20.844 425.285 22.4559 425.285 26.8122C425.285 31.4735 431.241 32.6933 435.153 33.913C442.022 36.0912 446.5 39.01 446.5 45.3702C446.5 52.6453 440.414 57.5244 430.241 57.5244C425.719 57.5244 420.285 55.7383 417.633 54.5185L417.59 54.4314Z" fill="#1D1E1C"/>
<path d="M73.8842 72.2053V89.3693H50.0169V59.8333L57.7118 57.7859V81.7457H66.1893V74.2093L73.8842 72.1618V72.2053ZM33.8011 32.7805V68.0668L41.496 66.0193V40.3605H50.0604V53.6473L57.7553 51.5998V40.3605H66.2327V67.9797L73.9276 65.9322V32.7369H33.8011V32.7805ZM33.8011 74.2964V89.2822H41.496V72.2489L33.8011 74.2964ZM92.2302 14.2225H57.7553V8.08003H71.4496L73.4929 0.5H34.2793L36.3226 8.08003H50.0169V14.2225H15.542C7.23847 14.2225 0.5 20.8877 0.5 29.1211C0.5 37.3546 7.23847 44.0198 15.542 44.0198C22.7152 44.0198 28.7146 39.01 30.2362 32.3884L22.8022 30.428C22.1935 33.826 19.1938 36.4398 15.542 36.4398C11.4989 36.4398 8.1949 33.1725 8.1949 29.1647C8.1949 25.1569 11.4989 21.8896 15.542 21.8896H92.2302C96.2733 21.8896 99.5773 25.1569 99.5773 29.1647C99.5773 33.1725 96.2733 36.4398 92.2302 36.4398C88.6218 36.4398 85.6221 33.8696 84.97 30.4716L77.536 32.432C79.0576 39.0536 85.057 44.0198 92.2302 44.0198C100.534 44.0198 107.272 37.3546 107.272 29.1211C107.272 20.8877 100.534 14.2225 92.2302 14.2225Z" fill="#9E271A"/>
<path d="M135.921 72.6411H147.138V75.1678H138.704V79.437H146.399V81.9637H138.704V86.7992H147.138V89.2823H135.921V72.6411Z" fill="#9E271A"/>
<path d="M160.093 83.9673H162.919C163.05 85.9276 164.441 86.9731 166.701 86.9731C169.179 86.9731 170.353 86.1454 170.353 84.5771C170.353 83.2702 169.44 82.6168 167.788 82.2683L165.354 81.7455C162.484 81.1356 160.615 79.8287 160.615 77.0407C160.615 74.2526 162.919 72.3794 166.701 72.3794C170.484 72.3794 172.875 74.4704 172.918 77.5199H170.092C170.005 75.9952 168.962 74.8625 166.658 74.8625C164.615 74.8625 163.484 75.6031 163.484 76.9971C163.484 78.0426 164.223 78.6961 165.919 79.0446L168.179 79.5238C171.266 80.1772 173.222 81.6148 173.222 84.4465C173.222 87.2781 171.049 89.3691 166.701 89.3691C162.354 89.3691 160.267 87.1909 160.093 83.8366V83.9673Z" fill="#9E271A"/>
<path d="M190.742 75.1678H185.743V72.6411H198.568V75.1678H193.568V89.2823H190.786V75.1678H190.742Z" fill="#9E271A"/>
<path d="M211.914 83.0963V72.6411H214.696V83.0528C214.696 85.3181 215.783 86.9735 218.522 86.9735C221.261 86.9735 222.391 85.3181 222.391 83.0528V72.6411H225.174V83.0963C225.174 87.2348 222.478 89.5001 218.522 89.5001C214.566 89.5001 211.914 87.2348 211.914 83.0963Z" fill="#9E271A"/>
<path d="M239.955 72.6411H245.563C250.389 72.6411 253.475 75.9519 253.475 80.9617C253.475 85.5794 250.65 89.2823 245.563 89.2823H239.955V72.6411ZM245.346 86.7992C248.867 86.7992 250.65 84.4468 250.65 80.9617C250.65 77.4766 248.911 75.1678 245.346 75.1678H242.65V86.7992H245.346Z" fill="#9E271A"/>
<path d="M267.561 72.6411H270.343V89.2823H267.561V72.6411Z" fill="#9E271A"/>
<path d="M284.472 80.9618C284.472 76.1698 286.907 72.4233 292.124 72.4233C297.34 72.4233 299.775 76.1698 299.775 80.9618C299.775 85.7537 297.297 89.5002 292.124 89.5002C286.95 89.5002 284.472 85.7102 284.472 80.9618ZM296.949 80.9618C296.949 77.6074 295.558 74.9936 292.124 74.9936C288.689 74.9936 287.298 77.6074 287.298 80.9618C287.298 84.3161 288.689 86.9299 292.124 86.9299C295.558 86.9299 296.949 84.3161 296.949 80.9618Z" fill="#9E271A"/>
<path d="M331.685 72.6411H334.467V86.7556H342.293V89.2823H331.685V72.6411Z" fill="#9E271A"/>
<path d="M355.683 72.6411H366.899V75.1678H358.465V79.437H366.16V81.9637H358.465V86.7992H366.899V89.2823H355.683V72.6411Z" fill="#9E271A"/>
<path d="M380.072 81.0053C380.072 75.9955 382.68 72.4233 387.68 72.4233C391.81 72.4233 394.331 74.9065 394.679 78.1737H391.853C391.636 76.3876 390.332 74.9936 387.723 74.9936C384.332 74.9936 382.985 77.6509 382.985 81.0053C382.985 84.3597 384.332 86.9299 387.723 86.9299C390.549 86.9299 391.984 85.1438 392.114 82.8786H388.158V80.3954H394.896V82.0073C394.896 86.5379 392.114 89.4566 387.68 89.4566C382.637 89.4566 380.072 85.8844 380.072 80.9618V81.0053Z" fill="#9E271A"/>
<path d="M422.415 89.0644V89.2822H419.372L418.068 85.4486H411.286L409.982 89.2822H407.025V89.0644L412.938 72.6846H416.416L422.372 89.0644H422.415ZM417.242 83.0091L414.72 75.6033H414.633L412.112 83.0091H417.242Z" fill="#9E271A"/>
<path d="M435.893 72.6411H438.675V86.7556H446.5V89.2823H435.893V72.6411Z" fill="#9E271A"/>
</g>
<defs>
<clipPath id="clip0_807_2856">
<rect width="446" height="89" fill="white" transform="translate(0.5 0.5)"/>
</clipPath>
</defs>
</svg>
