<svg width="108" height="99" viewBox="0 0 108 99" fill="none" xmlns="http://www.w3.org/2000/svg">
<g clip-path="url(#clip0_601_1902)">
<path d="M38.8158 71.5096H33.0912V73.3191H38.8158V71.5096Z" fill="#E55E55"/>
<path d="M85.3458 1.75732V13.3798C85.3458 19.1215 90.0233 23.8018 95.8002 23.8018C101.577 23.8018 106.255 19.1215 106.255 13.3798V1.75732" stroke="#E55E55" stroke-miterlimit="10"/>
<path d="M64.4545 1.75732V13.3798C64.4545 19.1215 69.1319 23.8018 74.9089 23.8018C80.6859 23.8018 85.3633 19.1215 85.3633 13.3798V1.75732" stroke="#E55E55" stroke-miterlimit="10"/>
<path d="M43.5455 1.75732V13.3798C43.5455 19.1215 48.223 23.8018 54 23.8018C59.7769 23.8018 64.4544 19.1215 64.4544 13.3798V1.75732" stroke="#E55E55" stroke-miterlimit="10"/>
<path d="M22.6542 1.75732V13.3798C22.6542 19.1215 27.3316 23.8018 33.1086 23.8018C38.8856 23.8018 43.563 19.1215 43.563 13.3798V1.75732" stroke="#E55E55" stroke-miterlimit="10"/>
<path d="M1.74536 1.75732V13.3798C1.74536 19.1215 6.4228 23.8018 12.1998 23.8018C17.9768 23.8018 22.6542 19.1215 22.6542 13.3798V1.75732" stroke="#E55E55" stroke-miterlimit="10"/>
<path d="M1.74536 1.73987V97.2601H19.6348V46.7161H43.0918V97.2601H106.255V1.77467L1.74536 1.73987Z" stroke="#E55E55" stroke-width="2" stroke-miterlimit="10"/>
<path d="M95.1895 46.8728H77.6665V58.2865H95.1895V46.8728Z" stroke="#E55E55" stroke-miterlimit="10"/>
<path d="M77.6665 58.3038H60.1436V70.0481H77.6665V58.3038Z" stroke="#E55E55" stroke-miterlimit="10"/>
<path d="M77.6665 46.8728H60.1436V58.2865H77.6665V46.8728Z" stroke="#E55E55" stroke-miterlimit="10"/>
<path d="M95.1895 58.3038H77.6665V70.0481H95.1895V58.3038Z" stroke="#E55E55" stroke-miterlimit="10"/>
</g>
<defs>
<clipPath id="clip0_601_1902">
<rect width="108" height="99" fill="white"/>
</clipPath>
</defs>
</svg>
