<svg width="561" height="445" viewBox="0 0 561 445" fill="none" xmlns="http://www.w3.org/2000/svg">
<path d="M425.231 21.2305C418.457 13.3657 423.222 4.82216 426.475 0C428.363 2.56208 435.398 13.3754 425.231 21.2305Z" fill="#E9EDF7"/>
<path d="M401.889 110.085C401.765 110.085 401.638 110.052 401.524 109.984C401.184 109.783 401.07 109.345 401.272 109.004C412.148 90.7833 424.006 57.7361 424.672 19.6329C424.679 19.2432 424.999 18.9282 425.391 18.9282H425.404C425.802 18.9347 426.119 19.2627 426.109 19.6556C425.44 58.0381 413.48 91.3516 402.507 109.731C402.373 109.955 402.134 110.082 401.886 110.082L401.889 110.085Z" fill="#E9EDF7"/>
<path d="M412.628 98.817C429.48 86.3086 441.329 96.1705 450.662 103.337C445.215 106.776 427.174 120.246 412.628 98.817Z" fill="#E9EDF7"/>
<path d="M420.789 80.496C431.38 67.4226 442.573 72.7383 451.27 76.4564C447.723 80.2135 436.403 94.2675 420.789 80.496Z" fill="#E9EDF7"/>
<path d="M425.521 59.1908C431.727 46.1499 442.151 48.3515 450.172 49.7186C447.971 53.5666 441.354 67.5752 425.521 59.1908Z" fill="#E9EDF7"/>
<path d="M428.405 38.2851C429.836 29.4331 436.446 28.9525 441.469 28.3875C440.825 31.0632 439.317 40.5614 428.405 38.2851Z" fill="#E9EDF7"/>
<path d="M403.487 92.7803C404.45 74.3521 391.367 70.5496 381.501 67.2537C381.635 72.9169 380.544 92.6764 403.487 92.7803Z" fill="#E9EDF7"/>
<path d="M411.988 72.6864C415.296 57.1158 404.662 52.1248 396.7 48.0008C396.05 52.8424 392.451 69.5365 411.988 72.6864Z" fill="#E9EDF7"/>
<path d="M418.402 47.5429C417.615 36.6971 409.682 35.4209 403.673 34.2097C404.166 37.5089 404.976 49.1471 418.402 47.5429Z" fill="#E9EDF7"/>
<path d="M421.524 30.3C422.239 24.0036 417.834 22.432 414.522 21.0974C414.45 23.0392 413.663 29.7902 421.524 30.3Z" fill="#E9EDF7"/>
<path d="M473.84 324.617C460.728 344.737 471.051 364.685 496.79 376.603C504.974 356.096 499.945 328.238 473.84 324.617Z" fill="#B5C4E6"/>
<path d="M462.246 297.896C469.905 306.348 488.667 309.67 497.867 303.241C507.067 296.808 503.485 286.8 509.442 284.693C515.399 282.585 527.567 288.362 533.671 282.316C544.52 271.564 523.808 257.211 530.987 248.476C538.165 239.741 549.194 248.466 557.192 241.348C565.187 234.23 547.401 223.368 553.018 211.61C558.636 199.855 565.981 172.74 549.733 170.399C536.891 168.552 541.215 184.327 536.313 187.022C530.722 190.094 525.951 183.508 520.533 188.236C512.877 194.919 519.383 206.674 512.188 211.123C504.997 215.575 497.309 207.492 492.515 217.526C486.577 229.95 506.741 238.306 492.302 249.291C477.864 260.276 472.348 237.633 462.472 243.167C451.691 249.207 464.686 267.271 456.58 269.554C445.551 272.661 450.365 284.78 462.246 297.889V297.896Z" fill="#89A5D6"/>
<path d="M464.47 300.591C464.268 300.591 464.068 300.494 463.947 300.315C463.755 300.029 463.833 299.64 464.121 299.448C464.97 298.883 466.309 298.435 467.863 297.915C471.263 296.776 475.489 295.36 477.086 292.018C477.994 290.122 478.601 288.112 479.248 285.982C480.316 282.458 481.42 278.815 483.977 275.662C489.167 269.271 495.388 267.297 500.878 265.553C504.898 264.277 508.37 263.176 510.689 260.582C512.632 258.409 512.299 256.445 511.874 253.957C511.44 251.411 510.947 248.525 512.736 244.774C514.477 241.127 516.443 240.131 518.344 239.169C520.343 238.156 522.413 237.107 524.536 232.659C526.339 228.889 525.918 226.564 525.473 224.099C525.01 221.53 524.53 218.874 526.336 214.591C529.709 206.577 535.154 203.391 539.128 201.069C541.365 199.761 543.135 198.728 543.726 197.299C545.144 193.896 543.227 191.844 543.207 191.825C542.969 191.574 542.975 191.178 543.227 190.941C543.478 190.704 543.877 190.714 544.115 190.961C544.216 191.068 546.61 193.63 544.886 197.777C544.131 199.592 542.201 200.719 539.762 202.144C535.937 204.378 530.702 207.441 527.488 215.072C525.826 219.017 526.254 221.378 526.705 223.878C527.165 226.427 527.639 229.061 525.666 233.194C523.357 238.026 520.993 239.225 518.909 240.283C517.041 241.231 515.424 242.05 513.866 245.313C512.243 248.71 512.681 251.272 513.106 253.753C513.55 256.347 513.968 258.796 511.623 261.419C509.072 264.267 505.274 265.472 501.254 266.748C495.934 268.437 489.901 270.353 484.947 276.451C482.54 279.412 481.475 282.939 480.44 286.345C479.81 288.424 479.16 290.577 478.213 292.557C476.387 296.379 471.688 297.954 468.255 299.104C466.789 299.594 465.522 300.02 464.813 300.494C464.705 300.565 464.584 300.598 464.464 300.598L464.47 300.591Z" fill="white"/>
<path d="M466.733 297.506C468.703 343.601 507.253 363.464 561 353.654C550.859 312.408 511.75 274.269 466.733 297.506Z" fill="#CAD9EC"/>
<path d="M549.129 348.131C549.002 348.131 548.871 348.102 548.747 348.037C534.387 340.48 516.104 328.888 499.977 318.659C486.705 310.242 474.167 302.293 466.352 298.224C465.953 298.016 465.797 297.526 466.009 297.13C466.218 296.733 466.711 296.577 467.11 296.789C474.987 300.893 487.551 308.859 500.856 317.295C516.96 327.504 535.21 339.077 549.511 346.605C549.909 346.816 550.063 347.306 549.851 347.702C549.704 347.978 549.42 348.134 549.129 348.134V348.131Z" fill="white"/>
<path d="M75.1287 296.441C73.2933 321.494 51.9834 331.671 22.8975 325.452C29.0994 303.173 51.0134 283.059 75.1287 296.441Z" fill="#B5C4E6"/>
<path d="M80.1839 293.636C46.222 311.713 15.6599 292.71 0 250.379C33.926 240.157 77.8619 251.83 80.1839 293.636Z" fill="#89A5D6"/>
<path d="M80.1808 294.35C80.0502 294.35 79.9195 294.317 79.802 294.243C73.5739 290.411 62.5679 284.861 50.912 278.987C36.7478 271.847 20.6928 263.754 9.19034 256.744C8.85069 256.536 8.74618 256.097 8.95193 255.76C9.15768 255.422 9.60511 255.318 9.94149 255.523C21.3917 262.504 37.4206 270.583 51.5619 277.711C63.2472 283.598 74.2794 289.161 80.5596 293.028C80.8993 293.236 81.0038 293.678 80.7915 294.012C80.6544 294.233 80.4192 294.35 80.1775 294.35H80.1808Z" fill="white"/>
<path d="M530.049 436.719C530.049 432.676 493.075 429.4 447.467 429.4C401.859 429.4 364.89 432.676 364.89 436.719C364.89 440.762 401.863 444.038 447.467 444.038C493.072 444.038 530.049 440.762 530.049 436.719Z" fill="#E9EFFF"/>
<path d="M362.65 432.4C362.65 426.227 306.18 421.22 236.522 421.22C166.864 421.22 110.396 426.227 110.396 432.4C110.396 438.573 166.867 443.58 236.522 443.58C306.176 443.58 362.65 438.576 362.65 432.4Z" fill="#E9EFFF"/>
<path d="M173.954 399.402C173.954 395.316 142.389 392.004 103.45 392.004C64.5107 392.004 32.9492 395.316 32.9492 399.402C32.9492 403.487 64.514 406.799 103.45 406.799C142.386 406.799 173.954 403.49 173.954 399.402Z" fill="#E9EFFF"/>
<path d="M488.857 201.053C489.954 203.336 489.775 209.934 484.04 215.452C469.232 229.694 441.521 235.416 432.086 230.863C422.893 226.427 399.8 191.113 399.8 191.113C403.134 189.425 408.905 186.902 408.905 186.902C417.971 197.144 430.891 211.165 440.663 215.273C444.99 217.091 458.04 204.81 473.008 198.511C481.11 195.101 486.186 195.474 488.86 201.047L488.857 201.053Z" fill="#C6372C"/>
<path d="M369.747 79.6615C356.938 76.2064 327.885 150.438 327.257 163.505C326.63 176.572 340.739 177.563 337.055 187.766C333.371 197.968 295.095 285.849 289.458 297.389C283.821 308.93 263.547 303.738 252.972 323.705C242.397 343.672 225.055 382.185 229.448 390.066C233.84 397.947 291.264 430.799 303.355 432.368C315.448 433.936 350.233 381.344 367.705 344.906C385.178 308.469 421.09 229.912 431.566 204.486C442.043 179.06 461.58 121.054 438.51 109.825C423.069 102.311 388.529 84.7304 369.747 79.6647V79.6615Z" fill="#005682"/>
<path d="M405.427 192.893C408.761 192.893 412.634 190.458 415.019 185.879C415.019 185.879 417.484 200.287 408.314 204.158C399.14 208.028 353.316 190.38 348.022 187.814C342.464 185.119 338.639 183.875 337.055 181.667C334.76 176.374 326.781 173.403 327.258 163.505C332.072 174.023 402.092 192.896 405.427 192.896V192.893Z" fill="#426D96"/>
<path d="M282.89 419.096C294.984 420.661 329.769 368.072 347.241 331.635C364.714 295.197 400.625 216.64 411.102 191.214C420.207 169.113 436.145 122.415 425.012 103.198C430.253 105.76 434.904 108.065 438.509 109.822C461.58 121.051 442.043 179.056 431.566 204.482C421.089 229.908 385.178 308.466 367.705 344.903C350.233 381.34 315.444 433.93 303.354 432.364C293.462 431.082 253.233 408.861 236.524 396.505C254.601 407.257 276.035 418.21 282.89 419.096Z" fill="#0B3954"/>
<path d="M260.49 314.246C266.734 308.976 273.975 307.225 279.834 304.9C279.974 304.848 280.124 304.796 280.262 304.741C280.262 304.741 288.217 304.998 294.083 306.949C299.671 308.807 339.403 324.51 346.193 333.788C351.066 340.445 334.322 356.054 334.322 356.054C335.85 351.128 334.736 343.916 332.356 341.594C329.978 339.272 268.811 307.586 260.483 314.249L260.49 314.246Z" fill="#426D96"/>
<path d="M390.877 107.718C391.311 105.675 390.096 103.691 388.163 103.282C386.229 102.873 384.306 104.198 383.871 106.24C383.437 108.283 380.965 127.552 382.901 127.961C384.835 128.37 390.446 109.76 390.88 107.718H390.877ZM400.658 113.634C401.801 111.903 401.412 109.562 399.793 108.403C398.173 107.244 395.932 107.708 394.789 109.439C393.646 111.17 384.358 128.159 385.981 129.315C387.601 130.474 399.518 115.362 400.661 113.631L400.658 113.634ZM407.448 123.087C409.123 121.931 409.623 119.59 408.561 117.859C407.5 116.128 405.282 115.657 403.607 116.813C401.932 117.969 387.242 130.088 388.303 131.822C389.365 133.553 405.772 124.243 407.448 123.087ZM413.137 130.205C412.797 128.162 410.939 126.834 408.986 127.24C407.033 127.646 389.175 133.053 389.515 135.095C389.855 137.138 408.258 135.043 410.211 134.637C412.167 134.231 413.477 132.251 413.137 130.208V130.205ZM408.526 146.522C410.459 146.931 412.383 145.607 412.817 143.564C413.251 141.522 412.036 139.537 410.103 139.128C408.166 138.719 389.864 136.592 389.43 138.631C388.996 140.674 406.592 146.113 408.526 146.522ZM402.65 156.936C404.27 158.095 406.51 157.631 407.654 155.9C408.797 154.17 408.408 151.828 406.788 150.669C405.168 149.51 389.201 140.167 388.058 141.898C386.915 143.629 401.027 155.777 402.647 156.933L402.65 156.936ZM393.48 164.294C394.541 166.025 396.759 166.493 398.434 165.34C400.109 164.184 400.609 161.843 399.548 160.112C398.486 158.381 387.291 143.249 385.615 144.402C383.94 145.558 392.415 162.564 393.476 164.294H393.48ZM382.408 167.474C382.748 169.516 384.606 170.844 386.559 170.438C388.512 170.036 389.825 168.052 389.485 166.009C389.146 163.966 384.427 145.347 382.47 145.753C380.517 146.159 382.069 165.431 382.408 167.474ZM371.121 165.993C370.687 168.035 371.902 170.019 373.835 170.429C375.772 170.838 377.692 169.513 378.127 167.47C378.561 165.428 381.033 146.159 379.097 145.749C377.163 145.34 371.552 163.95 371.118 165.993H371.121ZM361.34 160.076C360.197 161.807 360.586 164.148 362.206 165.308C363.825 166.467 366.066 166.003 367.209 164.272C368.352 162.541 377.64 145.551 376.017 144.395C374.397 143.236 362.48 158.349 361.337 160.08L361.34 160.076ZM354.55 150.624C352.875 151.78 352.375 154.121 353.437 155.852C354.498 157.582 356.716 158.05 358.391 156.897C360.066 155.741 374.756 143.622 373.695 141.888C372.633 140.158 356.226 149.468 354.55 150.624ZM348.861 143.506C349.201 145.548 351.059 146.876 353.012 146.47C354.965 146.068 372.823 140.658 372.483 138.615C372.144 136.573 353.74 138.667 351.787 139.073C349.834 139.476 348.521 141.46 348.861 143.502V143.506ZM349.178 130.146C348.744 132.189 349.958 134.173 351.892 134.582C353.829 134.991 372.131 137.118 372.565 135.079C372.999 133.036 355.403 127.597 353.469 127.188C351.536 126.779 349.612 128.104 349.178 130.146ZM359.345 116.774C357.725 115.615 355.484 116.079 354.341 117.81C353.198 119.541 353.587 121.882 355.207 123.041C356.827 124.201 372.794 133.543 373.937 131.812C375.08 130.081 360.968 117.934 359.348 116.778L359.345 116.774ZM368.515 109.416C367.454 107.685 365.236 107.214 363.561 108.37C361.885 109.526 361.386 111.868 362.447 113.598C363.509 115.329 374.704 130.461 376.379 129.309C378.055 128.153 369.58 111.147 368.518 109.416H368.515ZM379.587 106.237C379.247 104.194 377.389 102.866 375.436 103.272C373.483 103.678 372.17 105.659 372.509 107.701C372.846 109.744 377.568 128.364 379.524 127.958C381.477 127.552 379.926 108.279 379.587 106.237ZM377.536 136.128C377.104 138.144 378.306 140.106 380.217 140.508C382.127 140.911 384.028 139.602 384.456 137.586C384.887 135.569 383.685 133.608 381.775 133.205C379.864 132.803 377.963 134.111 377.536 136.128Z" fill="#426D96"/>
<path d="M298.854 341.766C300.128 340.003 299.889 337.668 298.325 336.548C296.757 335.428 294.455 335.95 293.181 337.714C291.907 339.477 281.365 356.733 282.929 357.85C284.497 358.97 297.58 343.526 298.854 341.766ZM305.108 351.063C306.885 349.862 307.544 347.504 306.584 345.796C305.624 344.088 303.407 343.676 301.63 344.877C299.853 346.079 284.157 358.593 285.118 360.301C286.078 362.01 303.331 352.265 305.108 351.063ZM307.143 362.562C309.151 362.107 310.611 360.087 310.405 358.048C310.2 356.012 308.403 354.726 306.395 355.184C304.386 355.638 285.924 361.509 286.133 363.549C286.339 365.585 305.137 363.019 307.146 362.565L307.143 362.562ZM309.194 371.44C309.772 369.384 308.671 367.423 306.735 367.065C304.801 366.705 286.385 365.039 285.807 367.095C285.229 369.15 302.708 374.154 304.644 374.511C306.578 374.872 308.616 373.495 309.194 371.44ZM297.998 385.094C299.566 386.215 301.868 385.692 303.142 383.928C304.416 382.165 304.177 379.83 302.613 378.71C301.045 377.59 285.483 368.637 284.21 370.4C282.936 372.164 296.437 383.974 298.002 385.091L297.998 385.094ZM288.21 392.699C289.171 394.407 291.388 394.82 293.165 393.621C294.941 392.42 295.601 390.062 294.641 388.354C293.681 386.646 283.334 371.771 281.561 372.972C279.784 374.174 287.25 390.991 288.21 392.699ZM276.777 396.167C276.982 398.203 278.779 399.489 280.787 399.035C282.796 398.58 284.255 396.56 284.05 394.521C283.844 392.485 280.291 373.953 278.282 374.408C276.274 374.862 276.568 394.131 276.777 396.171V396.167ZM265.434 394.969C264.856 397.025 265.957 398.983 267.893 399.343C269.827 399.704 271.865 398.327 272.439 396.271C273.018 394.216 276.799 374.846 274.866 374.485C272.933 374.125 266.009 392.91 265.434 394.969ZM255.911 389.29C254.637 391.053 254.876 393.388 256.44 394.508C258.008 395.628 260.31 395.105 261.584 393.342C262.857 391.579 273.4 374.323 271.835 373.206C270.268 372.086 257.185 387.53 255.911 389.29ZM249.657 379.993C247.88 381.191 247.22 383.552 248.181 385.26C249.141 386.968 251.358 387.38 253.135 386.179C254.912 384.977 270.607 372.462 269.647 370.754C268.687 369.046 251.433 378.791 249.657 379.993ZM247.622 368.494C245.614 368.949 244.154 370.969 244.363 373.008C244.568 375.044 246.365 376.33 248.373 375.872C250.382 375.417 268.844 369.546 268.635 367.507C268.429 365.471 249.631 368.036 247.622 368.491V368.494ZM245.571 359.616C244.993 361.672 246.094 363.63 248.03 363.99C249.964 364.351 268.38 366.017 268.958 363.961C269.536 361.906 252.057 356.902 250.12 356.544C248.187 356.184 246.149 357.561 245.571 359.616ZM251.623 347.124C250.349 348.887 250.587 351.222 252.152 352.342C253.719 353.463 269.281 362.415 270.555 360.652C271.829 358.889 258.328 347.079 256.763 345.962C255.196 344.841 252.893 345.364 251.619 347.127L251.623 347.124ZM266.551 338.357C265.591 336.649 263.373 336.236 261.597 337.434C259.82 338.636 259.16 340.993 260.121 342.701C261.081 344.409 271.427 359.285 273.2 358.084C274.977 356.882 267.511 340.065 266.551 338.357ZM277.985 334.889C277.779 332.853 275.983 331.567 273.974 332.024C271.966 332.479 270.506 334.499 270.715 336.538C270.921 338.574 274.474 357.109 276.483 356.652C278.491 356.197 278.197 336.928 277.988 334.889H277.985ZM289.327 336.087C289.905 334.031 288.805 332.073 286.868 331.713C284.935 331.352 282.897 332.729 282.322 334.785C281.744 336.84 277.962 356.21 279.895 356.57C281.829 356.931 288.753 338.146 289.327 336.087ZM274.579 363.526C273.321 365.267 273.556 367.575 275.104 368.679C276.652 369.787 278.926 369.27 280.186 367.53C281.444 365.789 281.208 363.481 279.66 362.376C278.112 361.269 275.839 361.785 274.579 363.526Z" fill="#426D96"/>
<path d="M289.73 73.7223H193.148C190.169 73.7223 187.756 76.122 187.756 79.0802V127.136C187.756 130.094 190.169 132.494 193.148 132.494H214.278V146.129L226.744 132.494H289.73C292.708 132.494 295.122 130.094 295.122 127.136V79.0802C295.122 76.122 292.708 73.7223 289.73 73.7223Z" fill="#6B67E9"/>
<path d="M259.314 116.034C257.744 116.034 256.267 115.427 255.157 114.323C253.818 112.994 251.643 112.994 250.304 114.323C248.008 116.602 244.278 116.602 241.989 114.323C241.342 113.68 240.48 113.326 239.562 113.326C238.645 113.326 237.786 113.68 237.139 114.323C236.029 115.427 234.552 116.034 232.982 116.034C231.411 116.034 229.935 115.427 228.824 114.323C227.485 112.994 225.31 112.994 223.974 114.323C221.678 116.602 217.949 116.602 215.659 114.323C215.183 113.848 215.183 113.076 215.659 112.601C216.136 112.127 216.913 112.127 217.39 112.601C218.726 113.93 220.904 113.93 222.243 112.601C224.533 110.325 228.262 110.325 230.558 112.601C231.205 113.244 232.067 113.602 232.985 113.602C233.903 113.602 234.762 113.248 235.411 112.605C236.519 111.501 237.995 110.893 239.569 110.893C241.143 110.893 242.616 111.501 243.726 112.605C245.062 113.933 247.24 113.933 248.579 112.605C250.869 110.328 254.598 110.328 256.894 112.605C257.541 113.248 258.403 113.605 259.318 113.605C260.232 113.605 261.094 113.251 261.744 112.608C262.855 111.504 264.328 110.897 265.898 110.897C267.469 110.897 268.945 111.504 270.056 112.608C270.533 113.082 270.533 113.855 270.056 114.329C269.579 114.803 268.802 114.803 268.325 114.329C267.678 113.686 266.816 113.332 265.902 113.332C264.987 113.332 264.125 113.686 263.478 114.329C262.368 115.433 260.892 116.04 259.321 116.04L259.314 116.034Z" fill="#9F9CFF"/>
<path d="M259.315 107.948C257.744 107.948 256.268 107.341 255.158 106.237C253.822 104.909 251.644 104.909 250.308 106.237C248.012 108.513 244.282 108.517 241.993 106.237C241.346 105.594 240.484 105.24 239.566 105.24C238.649 105.24 237.79 105.594 237.143 106.237C236.033 107.341 234.556 107.948 232.986 107.948C231.415 107.948 229.938 107.341 228.828 106.237C227.489 104.909 225.314 104.909 223.978 106.237C221.682 108.517 217.953 108.517 215.663 106.237C215.186 105.763 215.186 104.99 215.663 104.516C216.14 104.042 216.917 104.042 217.394 104.516C218.73 105.847 220.908 105.844 222.247 104.516C224.537 102.24 228.266 102.24 230.562 104.516C231.209 105.162 232.071 105.516 232.989 105.516C233.907 105.516 234.765 105.162 235.415 104.519C236.522 103.415 237.999 102.808 239.573 102.808C241.147 102.808 242.62 103.415 243.73 104.519C245.066 105.847 247.244 105.851 248.583 104.519C250.873 102.243 254.602 102.243 256.898 104.519C257.545 105.165 258.407 105.519 259.322 105.519C260.236 105.519 261.098 105.165 261.748 104.522C262.859 103.418 264.331 102.811 265.902 102.811C267.473 102.811 268.949 103.418 270.06 104.522C270.537 104.997 270.537 105.769 270.06 106.243C269.583 106.718 268.806 106.718 268.329 106.243C267.682 105.6 266.82 105.247 265.906 105.247C264.991 105.247 264.129 105.6 263.482 106.243C262.372 107.348 260.896 107.955 259.325 107.955L259.315 107.948Z" fill="#9F9CFF"/>
<path d="M259.314 99.8594C257.744 99.8594 256.267 99.2521 255.157 98.1481C253.818 96.82 251.643 96.82 250.304 98.1481C248.008 100.428 244.278 100.428 241.989 98.1481C241.342 97.5051 240.48 97.1512 239.562 97.1512C238.645 97.1512 237.786 97.5051 237.139 98.1481C236.029 99.2521 234.552 99.8594 232.982 99.8594C231.411 99.8594 229.935 99.2521 228.824 98.1481C227.485 96.82 225.31 96.82 223.974 98.1481C221.678 100.428 217.949 100.428 215.659 98.1481C215.183 97.674 215.183 96.9011 215.659 96.427C216.136 95.953 216.913 95.953 217.39 96.427C218.726 97.7552 220.904 97.7552 222.243 96.427C224.533 94.1507 228.262 94.1507 230.558 96.427C231.205 97.07 232.067 97.4272 232.985 97.4272C233.903 97.4272 234.762 97.0732 235.411 96.4303C236.519 95.3262 237.995 94.719 239.569 94.719C241.143 94.719 242.616 95.3262 243.726 96.4303C245.062 97.7584 247.24 97.7584 248.579 96.4303C250.869 94.154 254.598 94.154 256.894 96.4303C257.541 97.0732 258.403 97.4304 259.318 97.4304C260.232 97.4304 261.094 97.0765 261.744 96.4335C262.855 95.3295 264.328 94.7222 265.898 94.7222C267.469 94.7222 268.945 95.3295 270.056 96.4335C270.533 96.9076 270.533 97.6805 270.056 98.1546C269.579 98.6287 268.802 98.6287 268.325 98.1546C267.678 97.5116 266.816 97.1577 265.902 97.1577C264.987 97.1577 264.125 97.5116 263.478 98.1546C262.368 99.2586 260.892 99.8659 259.321 99.8659L259.314 99.8594Z" fill="#9F9CFF"/>
<g style="mix-blend-mode:multiply">
<path d="M289.73 73.7222H242.763V93.3031C242.763 96.2614 245.177 98.6611 248.155 98.6611H295.122V79.0802C295.122 76.122 292.708 73.7222 289.73 73.7222ZM187.759 79.0802V116.781H204.539C207.015 116.781 209.02 114.787 209.02 112.326V73.719H193.148C190.169 73.719 187.756 76.1187 187.756 79.077L187.759 79.0802Z" fill="#DDE2F8"/>
</g>
<path d="M241.192 32.9661H337.774C340.752 32.9661 343.166 35.3658 343.166 38.324V86.38C343.166 89.3383 340.752 91.7412 337.774 91.7412H316.643V105.376L304.178 91.7412H241.192C238.213 91.7412 235.8 89.3415 235.8 86.38V38.324C235.8 35.3658 238.213 32.9661 241.192 32.9661Z" fill="#E45E55"/>
<path d="M291.905 63.4253C291.905 62.0971 290.821 61.019 289.485 61.019C288.149 61.019 287.062 62.0971 287.062 63.4253C287.062 64.7534 288.146 65.8315 289.485 65.8315C290.824 65.8315 291.905 64.7534 291.905 63.4253Z" fill="white"/>
<path d="M279.716 63.4253C279.716 62.0971 278.632 61.019 277.293 61.019C275.954 61.019 274.873 62.0971 274.873 63.4253C274.873 64.7534 275.957 65.8315 277.293 65.8315C278.629 65.8315 279.716 64.7534 279.716 63.4253Z" fill="white"/>
<path d="M299.253 63.4253C299.253 62.0971 300.337 61.019 301.676 61.019C303.015 61.019 304.096 62.0971 304.096 63.4253C304.096 64.7534 303.012 65.8315 301.676 65.8315C300.34 65.8315 299.253 64.7534 299.253 63.4253Z" fill="white"/>
<path d="M197.58 61.019H117.321C114.845 61.019 112.84 63.0129 112.84 65.4743V105.409C112.84 107.867 114.845 109.864 117.321 109.864H134.881V121.194L145.241 109.864H197.583C200.058 109.864 202.064 107.87 202.064 105.409V65.4743C202.064 63.0161 200.058 61.019 197.583 61.019H197.58Z" fill="#DDE2F8"/>
<path d="M190.329 71.6959H124.728V73.7222H190.329V71.6959Z" fill="#9F9CFF"/>
<path d="M190.329 78.3269H124.728V80.3532H190.329V78.3269Z" fill="#9F9CFF"/>
<path d="M190.329 84.9545H124.728V86.9807H190.329V84.9545Z" fill="#9F9CFF"/>
<path d="M190.329 91.5853H124.728V93.6116H190.329V91.5853Z" fill="#9F9CFF"/>
<path d="M190.329 98.2162H124.728V100.242H190.329V98.2162Z" fill="#9F9CFF"/>
<path d="M116.086 204.596C115.341 202.596 111.399 197.585 106.696 193.188L104.391 166.103C112.928 174.004 126.021 195.247 126.951 201.608C128.186 210.048 112.614 235.461 112.614 235.461L111.229 222.605C114.25 216.422 116.945 206.898 116.089 204.596H116.086Z" fill="#C6372C"/>
<path d="M70.7915 398.431C69.8117 398.431 68.5935 399.512 68.4368 400.655H66.6503C66.6503 400.655 64.8965 397.71 65.8208 393.923C66.4054 391.537 67.0194 392.108 67.6431 392.732C69.0638 393.878 74.8607 394.258 75.3147 392.322C76.8105 392.547 92.2189 396.953 92.2189 398.369C92.2189 400.665 90.4096 400.658 89.1751 400.658C74.6027 400.658 76.5329 399.768 70.7882 398.434L70.7915 398.431Z" fill="#0B3954"/>
<path d="M74.1291 387.263C73.6295 385.081 67.2871 383.428 67.2936 387.263C67.2969 388.864 67.1891 391.615 66.8887 392.319H66.8952C68.1722 394.138 81.5819 397.544 83.77 394.712C82.2416 393.901 72.617 392.985 74.1291 387.26V387.263Z" fill="#F7D3C9"/>
<path d="M124.43 398.431C123.45 398.431 122.232 399.512 122.075 400.655H120.289C120.289 400.655 118.535 397.71 119.459 393.923C120.044 391.537 120.658 392.108 121.282 392.732C122.702 393.878 128.499 394.258 128.953 392.322C130.449 392.547 145.858 396.953 145.858 398.369C145.858 400.665 144.048 400.658 142.814 400.658C128.241 400.658 130.168 399.768 124.427 398.434L124.43 398.431Z" fill="#0B3954"/>
<path d="M126.772 387.263C126.272 385.081 119.93 383.428 119.937 387.263C119.937 388.864 120.828 391.615 120.524 392.319H120.531C121.808 394.138 135.218 397.544 137.406 394.712C135.877 393.901 127.327 391.735 126.772 387.26V387.263Z" fill="#F7D3C9"/>
<path d="M79.4162 140.677C77.9629 140.986 74.5337 142.327 73.2796 149.844C72.1333 156.706 70.6016 174.562 70.6016 174.562C70.6016 174.562 85.1053 165.749 86.0982 164.476C87.0943 163.203 83.8708 147.418 83.0413 145.204C82.7278 144.366 81.6206 140.213 79.4162 140.68V140.677Z" fill="#005682"/>
<path d="M113.888 237.013C120.756 266.618 126.779 348.959 126.779 387.263H119.94C116.099 377.768 83.989 255.081 81.3926 237.013H113.888Z" fill="#0B3954"/>
<path d="M74.2956 238.065C66.6338 258.939 67.2935 348.959 67.2935 387.263H74.129C77.9697 377.768 106.651 256.63 109.244 238.562C104.054 238.562 74.2956 238.062 74.2956 238.062V238.065Z" fill="#005682"/>
<path d="M115.453 237.939C109.411 239.965 91.0304 239.218 72.7773 237.939C76.5854 227.015 83.1726 215.221 81.8206 207.275C80.2268 197.903 74.6912 186.129 74.8773 180.446C75.3705 165.528 81.9349 161.395 89.5901 160.057C95.7006 159.924 105.243 163.752 111.573 175.108C113.568 178.686 116.942 183.434 118.725 190.996C119.819 195.637 112.673 201.923 112.628 208.298C112.549 219.027 113.709 222.592 115.453 237.942V237.939Z" fill="#E45E55"/>
<path d="M79.0994 238.358C83.6096 228.184 85.4908 215.802 86.2876 209.123C87.3262 200.439 83.6619 190.808 81.673 184.177L75.6017 185.486C77.1236 191.656 80.605 200.157 81.8167 207.275C83.1687 215.221 76.5815 227.015 72.7734 237.939C74.8865 238.088 76.9995 238.228 79.0962 238.358H79.0994Z" fill="#B62431"/>
<path d="M104.387 166.103C100.53 163.177 98.9886 155.936 99.5274 155.189C100.631 153.663 107.447 156.306 108.133 153.767C108.407 152.741 108.512 150.799 108.691 148.574C108.721 148.217 111.147 148.165 111.027 147.824C110.246 145.623 108.803 140.508 108.744 138.67C108.515 131.257 107.317 125.931 99.0506 126.328C92.4895 126.643 87.7049 131.361 87.2706 138.076C86.784 145.568 89.8768 153.069 90.1707 155.705C90.4777 158.446 89.4718 159.729 87.3424 160.547C91.4411 166.158 104.39 166.106 104.39 166.106L104.387 166.103Z" fill="#F0CCC0"/>
<path d="M82.7276 139.963C81.6433 139.336 80.0528 139.619 79.1678 140.382C78.2794 141.145 79.7099 146.081 80.9705 146.298C82.1854 146.506 84.158 146.227 84.4291 144.837C84.7002 143.447 82.7276 139.963 82.7276 139.963Z" fill="#FCBA06"/>
<path d="M91.4448 124.655C86.3631 127.006 82.7609 131.137 82.2089 136.196C81.546 142.246 88.9497 156.076 89.8805 153.971C90.7786 151.945 93.2966 152.133 94.5899 149.808C95.9256 147.405 94.1065 145.753 96.4024 142.996C97.1046 142.151 99.0641 140.093 101.99 139.774C106.406 139.294 109.195 134.228 109.244 131.945C109.384 125.133 99.8806 120.755 91.4481 124.655H91.4448Z" fill="#0B3954"/>
<path d="M84.8246 138.521C85.3765 133.462 88.9788 129.331 94.0605 126.98C98.956 124.717 104.208 125.243 107.728 127.415C104.73 123.47 97.7868 121.723 91.4478 124.658C86.3661 127.009 82.7638 131.14 82.2119 136.199C81.5489 142.249 88.9526 156.079 89.8834 153.975C89.8932 153.952 89.9063 153.936 89.9161 153.913C87.4993 149.977 84.3869 142.535 84.8246 138.521Z" fill="#005682"/>
<path d="M78.623 243.693C83.1952 249.34 95.2823 252.304 96.6997 249.444C98.8453 245.112 88.1659 242.563 88.1659 242.563C92.5977 242.686 94.518 242.404 94.4201 241.446C93.1856 240.533 86.3011 240.832 82.2873 238.841C77.6955 237.646 76.092 240.572 78.623 243.696V243.693Z" fill="#F8D8D0"/>
<path d="M80.6705 164.009C68.9689 175.829 46.5551 200.157 47.9627 206.986C50.1672 217.673 78.6326 244.683 78.6326 244.683C80.9742 241.15 83.2538 239.062 83.2538 239.062C76.3628 232.159 60.3045 206.528 60.3045 206.528C65.0367 202.206 84.0834 182.71 84.0834 182.71L80.6705 164.005V164.009Z" fill="#E45E55"/>
<path d="M78.2864 245.277C78.2864 245.277 83.636 238.695 84.0801 238.289C83.0024 236.932 80.1611 234.019 80.1611 233.857C78.9004 235.003 72.5222 241.147 72.5156 241.436C73.1655 242.089 78.2832 245.277 78.2832 245.277H78.2864Z" fill="#C6372C"/>
<path d="M407.189 226.125C402.761 224.443 402.781 219.845 398.979 217.244C395.178 214.643 394.658 214.218 394.328 215.224C393.999 216.231 398.581 219.77 397.66 219.871C396.082 220.046 388.172 211.444 386.673 212.201C385.641 212.724 390.876 217.874 393.567 219.959C390.631 220.108 384.593 210.928 383.616 212.324C382.963 213.263 388.799 220.8 392.147 221.881C389.41 222.082 383.874 214.348 382.633 215.231C381.637 215.945 387.261 222.67 390.292 223.765C387.777 223.463 384.71 219.952 384.139 220.803C383.433 221.852 389.426 226.707 394.972 229.512C399.355 231.73 399.835 230.145 402.823 231.11C405.586 229.135 407.186 226.122 407.186 226.122L407.189 226.125Z" fill="#F8D8D0"/>
<path d="M475.505 270.577C464.767 292.781 457.654 324.981 444.531 353.784C444.531 375.44 435.279 393.693 431.347 422.256H424.09C424.09 398.314 422.278 391.55 423.241 359.139C423.731 342.659 423.901 298.636 438.006 259.611C444.672 261.631 475.505 270.577 475.505 270.577Z" fill="#0B3954"/>
<path d="M432.438 424.896C431.488 423.441 431.348 422.256 431.348 422.256H424.091C425.11 424.295 424.626 426.035 424.349 427.055C426.236 427.776 428.996 425.915 432.438 424.896Z" fill="#F0CCC0"/>
<path d="M432.438 424.896C428.996 425.915 426.239 427.776 424.349 427.055C423.352 427.776 408.636 433.04 407.137 434.056C405.606 435.098 405.828 436.719 407.451 436.719C409.822 436.719 429.362 435.862 429.362 435.862C429.76 436.29 430.08 436.719 430.08 436.719H434.545C435.877 434.423 435.515 427.536 432.435 424.896H432.438Z" fill="#0B3954"/>
<path d="M480.042 271.82C482.152 301.978 476.283 319.383 472.521 349.8C479.337 366.994 480.225 389.186 484.268 422.259H477.015C468.647 401.96 460.587 382.88 448.288 353.489C443.99 343.218 443.16 292.687 444.578 261.549C456.018 263.056 480.042 271.82 480.042 271.82Z" fill="#005682"/>
<path d="M485.362 424.896C484.409 423.441 484.268 422.256 484.268 422.256H477.015C478.034 424.295 477.55 426.035 477.273 427.055C479.16 427.776 481.92 425.915 485.362 424.896Z" fill="#F0CCC0"/>
<path d="M485.362 424.896C481.92 425.915 479.157 427.776 477.272 427.055C476.273 427.776 461.557 433.04 460.061 434.056C458.529 435.098 458.755 436.719 460.375 436.719C462.749 436.719 482.285 435.862 482.285 435.862C482.684 436.29 483.004 436.719 483.004 436.719H487.468C488.801 434.423 488.438 427.536 485.362 424.896Z" fill="#0B3954"/>
<path d="M491.639 196.923C494.095 204.265 499.908 211.467 495.999 229.584C492.09 247.7 480.042 271.817 480.042 271.817C477.106 271.171 438.007 259.608 438.007 259.608C438.624 248.405 444.819 232.883 454.307 218.043C463.801 203.2 475.506 196.166 479.072 194.53C486.704 197.329 491.639 196.923 491.639 196.923Z" fill="#E45E55"/>
<path d="M494.602 184.301C493.589 186.687 490.96 195.423 492.296 198.712C490.447 199.43 484.634 198.439 476.267 196.043C478.004 194.828 480.555 193.62 479.716 190.35C478.801 186.791 474.595 190.035 473.628 184.356C472.498 177.728 474.948 165.986 478.641 163.567C482.776 160.859 490.229 158.229 497.205 165.489C502.897 171.412 496.659 179.459 494.602 184.307V184.301Z" fill="#F8D8D0"/>
<path d="M489.915 176.868C488.007 176.358 490.398 171.675 489.336 170.1C488.086 168.237 482.795 165.866 477.276 164.941C471.756 164.009 470.404 156.121 474.65 154.205C478.899 152.293 480.875 157.147 483.667 157.024C486.923 156.878 487.429 153.124 491.74 154.754C495.721 156.257 492.789 159.508 495.189 160.911C497.664 162.359 502.599 159.946 504.673 165.035C506.211 168.811 502.054 169.584 501.453 173.133C501.081 175.348 504.644 183.21 498.076 184.255C491.505 185.298 494.532 179.784 495.538 177.436C496.538 175.088 495.891 173.169 494.679 172.773C493.471 172.377 492.638 177.605 489.911 176.874L489.915 176.868Z" fill="#0B3954"/>
<path d="M492.492 206.794C494.059 208.788 495.317 215.27 490.914 221.888C479.549 238.975 460.084 247.59 449.663 248.765C439.509 249.908 400.998 232.357 400.998 232.357C402.909 229.155 406.426 223.956 406.426 223.956C419.597 227.785 438.056 232.763 448.523 231.035C453.157 230.269 463.216 217.088 476.463 207.723C483.635 202.654 488.671 201.93 492.492 206.794Z" fill="#F18C7C"/>
<path d="M210.329 272.22C210.329 291.609 210.261 378.515 210.261 418.213H203.177C199.199 408.371 172.67 290.944 169.982 272.22H210.332H210.329Z" fill="#0B3954"/>
<path d="M203.177 420.791V418.213H210.261C210.352 420.616 210.803 421.905 211.071 422.899C209.229 423.603 206.534 421.785 203.174 420.791H203.177Z" fill="#E0B6AA"/>
<path d="M203.176 420.791C206.537 421.788 209.231 423.603 211.073 422.899C212.05 423.603 226.416 428.74 227.88 429.734C229.375 430.754 229.157 432.332 227.573 432.332C225.257 432.332 206.178 431.497 206.178 431.497C205.792 431.916 205.479 432.332 205.479 432.332H201.119C199.819 430.091 200.172 423.366 203.18 420.788L203.176 420.791Z" fill="#0B3954"/>
<path d="M151.082 420.791V418.213H158.166C158.258 420.616 158.708 421.905 158.976 422.899C157.134 423.603 154.44 421.785 151.079 420.791H151.082Z" fill="#E0B6AA"/>
<path d="M151.083 420.791C154.444 421.788 157.138 423.603 158.98 422.899C159.956 423.603 174.323 428.74 175.786 429.734C177.282 430.754 177.063 432.332 175.479 432.332C173.164 432.332 154.084 431.497 154.084 431.497C153.699 431.916 153.386 432.332 153.386 432.332H149.022C147.722 430.091 148.075 423.366 151.083 420.788V420.791Z" fill="#0B3954"/>
<path d="M158.075 272.22C157.674 279.575 151.083 378.515 151.083 418.213H158.167C162.145 408.371 195.737 290.944 198.428 272.22H158.079H158.075Z" fill="#005682"/>
<path d="M193.984 189.857C202.011 197.215 219.83 228.463 224.876 231.379C229.84 234.247 250.062 225.343 256.992 220.67C258.629 223.073 260.882 225.115 260.882 225.115C257.241 228.739 229.468 252.253 220.575 249.301C211.685 246.349 203.419 233.623 196.678 226.063C189.937 218.507 193.984 189.857 193.984 189.857Z" fill="#CED3F8"/>
<path d="M256.988 220.673C260.937 219.176 260.917 215.078 264.304 212.76C267.691 210.441 268.154 210.061 268.448 210.961C268.742 211.857 264.66 215.013 265.48 215.101C266.887 215.257 273.935 207.593 275.271 208.269C276.192 208.733 271.525 213.321 269.128 215.182C271.744 215.315 277.126 207.135 277.994 208.379C278.579 209.214 273.376 215.929 270.391 216.897C272.831 217.075 277.763 210.184 278.866 210.97C279.755 211.607 274.742 217.598 272.041 218.575C274.281 218.309 277.011 215.179 277.524 215.935C278.151 216.871 272.815 221.196 267.873 223.693C263.967 225.667 263.54 224.255 260.878 225.119C258.415 223.359 256.988 220.673 256.988 220.673Z" fill="#E0B6AA"/>
<path d="M261.939 225.999C261.939 225.999 256.58 219.92 256.286 219.472C254.758 220.15 251.943 222.261 251.799 222.235C252.625 223.505 257.632 230.369 257.886 230.418C258.556 229.947 261.939 226.002 261.939 226.002V225.999Z" fill="#BBC0E6"/>
<path d="M158.075 272.22H210.329C208.968 253.438 208.556 205.671 199.892 195.163C189.64 182.726 182.289 184.161 172.239 194.153C158.686 207.626 155.998 256.562 158.072 272.223L158.075 272.22Z" fill="#DDE2F8"/>
<path d="M199.859 272.256C199.454 253.314 199.006 242.813 198.68 235.14C198.497 230.869 198.353 227.496 198.262 223.855C197.896 209.451 191.851 194.724 189.392 191.009L192.119 189.224C195.117 193.75 201.152 209.009 201.528 223.774C201.619 227.388 201.763 230.749 201.946 235.003C202.272 242.686 202.723 253.214 203.128 272.187L199.862 272.256H199.859Z" fill="#BBC0E6"/>
<path d="M179.927 174.692C180.237 177.202 180.355 186.746 178.216 189.48C179.757 190.646 187.896 192.282 193.983 189.86C192.677 188.256 190.607 187.178 192.275 184.333C194.091 181.235 197.168 185.398 199.604 180.323C202.445 174.403 203.304 162.723 200.489 159.469C197.338 155.826 191.047 151.374 182.543 156.339C175.606 160.388 179.297 169.6 179.927 174.699V174.692Z" fill="#E0B6AA"/>
<path d="M186.325 168.961C188.255 168.99 187.269 163.957 188.686 162.758C190.362 161.343 195.966 160.521 201.4 161.119C206.832 161.713 210.222 154.666 206.75 151.737C203.275 148.808 200.114 152.845 197.524 151.984C194.509 150.984 195.042 147.321 190.558 147.704C186.417 148.058 188.294 151.89 185.662 152.569C182.948 153.27 178.964 149.692 175.649 153.919C173.19 157.056 176.887 158.891 176.492 162.379C176.247 164.557 170.786 170.99 176.671 173.718C182.56 176.442 181.201 170.461 180.887 167.99C180.58 165.519 181.704 163.889 182.948 163.84C184.189 163.788 183.565 168.919 186.322 168.957L186.325 168.961Z" fill="#0B3954"/>
<path d="M178.993 187.178C180.436 187.895 189.44 189.467 192.536 187.671C193.183 188.434 193.666 189.123 193.983 189.86C191.824 191.146 183.728 192.51 178.068 189.616C178.428 188.642 178.989 187.178 178.989 187.178H178.993Z" fill="#BBC0E6"/>
<path d="M172.5 193.76C163.01 201.68 143.61 226.521 143.61 244.794C143.61 263.066 159.153 280.374 164.254 285.446C166.217 283.494 170.449 279.286 170.449 279.286C166.674 275.532 156.651 250.713 158.509 243.735C160.368 236.754 169.212 229.194 177.056 221.391C184.901 213.591 185.659 207.022 184.284 202.092C182.909 197.166 176.459 190.458 172.497 193.76H172.5Z" fill="#E9EDF7"/>
<path d="M170.452 279.283C172.242 279.283 173.411 279.351 174.995 280.923C173.411 281.744 164.257 285.443 164.257 285.443L170.452 279.283Z" fill="#E0B6AA"/>
<path d="M164.208 285.81C164.208 285.81 170.861 278.896 171.364 278.51C170.4 276.789 168.47 274.123 167.801 273.36C166.38 274.461 159.068 280.731 159.035 281.036C159.665 281.77 164.208 285.81 164.208 285.81Z" fill="#DDE2F8"/>
<path d="M79.9883 19.7108L70.834 21.5585C70.1188 21.7014 69.5342 22.2144 69.3023 22.9061L66.3336 31.7159C66.1018 32.4043 66.2553 33.1641 66.7419 33.7097L72.9307 40.6718C73.4141 41.2141 74.1522 41.4608 74.8707 41.318L84.0249 39.4703C84.7402 39.3274 85.3247 38.8111 85.5566 38.1227L88.5253 29.3129C88.7572 28.6245 88.6037 27.8646 88.1203 27.3191L81.9315 20.357C81.4481 19.8147 80.7068 19.5679 79.9916 19.7108H79.9883Z" fill="#005682"/>
<path d="M521.653 124.395L526.088 115.732C526.601 114.728 527.832 114.332 528.838 114.842L537.551 119.252C538.557 119.762 538.959 120.986 538.446 121.986L534.011 130.65C533.498 131.653 532.267 132.049 531.261 131.539L522.545 127.13C521.539 126.62 521.137 125.396 521.65 124.395H521.653Z" fill="#005682"/>
</svg>
