<svg width="39" height="44" viewBox="0 0 39 44" fill="none" xmlns="http://www.w3.org/2000/svg">
<g clip-path="url(#clip0_807_3077)">
<path d="M6.12749 43.9996C5.33422 43.7044 4.7688 43.1944 4.6169 42.2729C4.53251 41.7719 4.7266 41.405 5.10636 41.3424C5.46924 41.2798 5.72241 41.5214 5.81524 42.0313C5.89963 42.4787 6.13593 42.6934 6.56632 42.7113C6.65915 42.7113 6.75198 42.7113 6.85325 42.7113C16.5919 42.7113 26.3306 42.7113 36.0777 42.7113C36.8879 42.7113 37.0904 42.5055 37.0904 41.6556C37.0904 30.8837 37.0904 20.1118 37.0904 9.34893V8.8658C36.9216 8.8658 36.7782 8.8658 36.6347 8.8658C34.8794 8.8658 33.1241 8.8658 31.3687 8.8658C30.432 8.8658 29.951 8.34689 29.951 7.35381C29.951 5.51078 29.951 3.65881 29.951 1.81578C29.951 1.66369 29.951 1.50265 29.951 1.29687H29.4868C21.9254 1.29687 14.3556 1.29687 6.79418 1.29687C6.02622 1.29687 5.81524 1.52054 5.81524 2.35259C5.81524 9.43839 5.81524 16.5331 5.81524 23.619C5.81524 23.7621 5.81524 23.9053 5.81524 24.0484C5.79837 24.451 5.55363 24.7105 5.21607 24.7105C4.87851 24.7105 4.63378 24.451 4.60846 24.0484C4.60002 23.8337 4.60846 23.619 4.60846 23.3953C4.01772 23.3953 3.44387 23.3327 2.89533 23.4132C2.32147 23.4937 1.9164 24.1468 1.92484 24.782C1.92484 25.4083 2.34679 25.9898 2.92908 26.133C3.1485 26.1867 3.38479 26.1956 3.61265 26.1956C10.0938 26.1956 16.5835 26.1956 23.0647 26.1956C23.3432 26.1956 23.6385 26.1956 23.9086 26.2672C24.7609 26.4909 25.3179 27.2692 25.3179 28.2802C25.3264 31.4473 25.3348 34.6145 25.3179 37.7727C25.3179 39.0252 24.4993 39.8752 23.3179 39.8752C16.6594 39.8752 10.001 39.8752 3.33416 39.8752C1.79825 39.8752 0.709611 38.6942 0.701172 37.0748C0.701172 33.0041 0.701172 28.9423 0.701172 24.8715C0.701172 23.2342 1.77293 22.0891 3.31728 22.0622C3.7308 22.0622 4.14431 22.0622 4.60002 22.0622V21.4986C4.60002 15.1822 4.6169 8.8658 4.58314 2.54942C4.58314 1.28793 4.97134 0.420094 6.12749 0.00854492C14.4231 0.00854492 22.7187 0.00854492 31.0143 0.00854492C31.3856 0.250107 31.8244 0.429041 32.1282 0.742176C33.968 2.65678 35.7824 4.59822 37.6136 6.52176C38.0947 7.02278 38.3141 7.60432 38.3141 8.32005C38.3141 19.4677 38.3141 30.6153 38.3141 41.7629C38.3141 41.9597 38.3141 42.1655 38.2719 42.3623C38.1031 43.2481 37.5377 43.7223 36.7782 43.9996H6.12749ZM1.90796 27.0634C1.90796 27.2871 1.90796 27.4392 1.90796 27.5913C1.90796 30.669 1.90796 33.7467 1.90796 36.8243C1.90796 38.059 2.39742 38.5779 3.55358 38.5779C10.0685 38.5779 16.5751 38.5779 23.09 38.5779C23.8917 38.5779 24.1027 38.3542 24.1027 37.5132C24.1027 34.5519 24.1027 31.5815 24.1027 28.6202C24.1027 27.645 23.9424 27.466 23.0141 27.466C16.7185 27.466 10.423 27.466 4.12743 27.466C3.38479 27.466 2.64216 27.5287 1.9164 27.0545L1.90796 27.0634ZM36.7022 7.55063C34.8625 5.60025 33.0143 3.64092 31.1831 1.70842V7.55063H36.7022Z" fill="#0B3954"/>
<path d="M27.9258 17.4461C28.0609 17.464 28.1874 17.5087 28.3225 17.5445C29.3267 17.8666 29.7824 18.5555 29.5546 19.4144C29.2761 20.4611 28.4153 21.0158 27.4364 20.7564C26.5165 20.5148 25.7485 19.9691 25.0903 19.2891C24.5924 18.7702 24.0945 18.5734 23.4025 18.7344C21.9257 19.0744 20.4404 19.3607 18.9635 19.7007C18.8116 19.7364 18.6513 19.9064 18.55 20.0585C18.0099 20.8816 17.5289 21.7405 16.9466 22.5278C16.6259 22.9662 16.1871 23.342 15.7398 23.6462C15.09 24.0935 14.4149 23.9772 13.9254 23.4493C13.3769 22.8499 13.1997 22.0268 13.6301 21.3737C13.9507 20.8816 14.3727 20.3985 14.8622 20.1122C15.7145 19.6022 16.6428 19.2444 17.5373 18.806C17.723 18.7076 17.9424 18.5465 18.0184 18.3586C18.7188 16.623 19.4024 14.8873 20.0606 13.1338C20.1281 12.9459 20.0944 12.6506 20.01 12.4628C19.5458 11.4607 19.107 10.4497 18.9551 9.32245C18.7948 8.0878 19.3517 7.22892 20.4151 7.07682C21.2337 6.96052 21.8159 7.37207 22.0016 8.23095C22.2041 9.14352 22.0438 10.0561 21.8835 10.9508C21.8244 11.2997 21.7738 11.6665 21.6472 11.9886C21.4699 12.4538 21.5459 12.8296 21.8244 13.2143C22.6936 14.4131 23.5544 15.6209 24.4152 16.8377C24.6599 17.1866 24.9553 17.3656 25.3772 17.285C25.5629 17.2493 25.757 17.285 25.9426 17.285C25.9426 17.2671 27.2591 17.3745 27.9174 17.455L27.9258 17.4461ZM23.2421 17.4282C22.4826 16.3725 21.7484 15.3436 21.0227 14.3326C20.5248 15.612 20.0269 16.8824 19.529 18.1529C20.7779 17.9113 22.01 17.6697 23.2421 17.4282ZM16.896 20.6132C16.8622 20.5685 16.82 20.5238 16.7863 20.4701C16.0774 20.81 15.3685 21.1321 14.8284 21.7495C14.6427 21.9642 14.5415 22.2147 14.7609 22.4741C14.9887 22.7425 15.2082 22.5368 15.3516 22.3847C15.8833 21.8121 16.3896 21.2037 16.9044 20.6132H16.896ZM20.5501 10.7539C20.6176 10.7539 20.6851 10.745 20.7526 10.736C20.7948 10.0561 20.8455 9.38508 20.8623 8.70513C20.8623 8.58882 20.6767 8.35621 20.626 8.36515C20.4657 8.40989 20.3054 8.52619 20.1956 8.6604C20.1281 8.74092 20.1366 8.9109 20.1619 9.02721C20.28 9.5998 20.4235 10.1724 20.5501 10.745V10.7539ZM26.2886 18.5018C26.2633 18.5734 26.238 18.6449 26.2211 18.7165C26.7106 18.976 27.1832 19.2891 27.698 19.4859C28.103 19.647 28.2887 19.4591 28.3731 18.8597C27.6811 18.7434 26.9891 18.627 26.2886 18.5018Z" fill="#0B3954"/>
<path d="M11.3438 32.9686C11.3438 32.1545 11.3438 31.3403 11.3438 30.5172C11.3438 29.9268 11.5463 29.712 12.1033 29.712C12.5083 29.712 12.9134 29.712 13.3185 29.712C14.6012 29.721 15.4958 30.4367 15.8586 31.7429C16.1371 32.7629 16.1118 33.7828 15.673 34.758C15.2088 35.769 14.4324 36.3147 13.3522 36.3416C12.9641 36.3505 12.5674 36.3505 12.1792 36.3505C11.58 36.3505 11.3606 36.1358 11.3522 35.5095C11.3353 34.6685 11.3522 33.8186 11.3522 32.9776L11.3438 32.9686ZM12.5927 35.0085C13.5801 35.1695 14.1793 34.9727 14.5084 34.3375C14.9725 33.4249 14.9557 32.4855 14.4578 31.5998C14.0274 30.8304 13.2847 31.0004 12.5927 31.0272V35.0085Z" fill="#0B3954"/>
<path d="M7.09901 34.0244C7.09901 34.6059 7.09901 35.1337 7.09901 35.6616C7.09901 36.1268 6.85428 36.4221 6.49984 36.431C6.13696 36.431 5.89223 36.1447 5.88379 35.6795C5.88379 33.908 5.88379 32.1276 5.88379 30.3562C5.88379 29.882 6.1032 29.6494 6.55891 29.6405C7.04838 29.6315 7.52941 29.6226 8.01887 29.6405C9.16658 29.6852 10.0358 30.6335 10.0274 31.8324C10.0274 33.0134 9.14971 33.9707 8.00199 34.0244C7.7235 34.0422 7.43658 34.0244 7.09057 34.0244H7.09901ZM7.13277 30.9198V32.745C7.71507 32.7002 8.33112 32.906 8.70244 32.2529C8.87966 31.9487 8.86278 31.6177 8.66024 31.3224C8.25517 30.732 7.67287 30.9556 7.13277 30.9198Z" fill="#0B3954"/>
<path d="M18.5505 30.9288V32.3156C18.9555 32.3156 19.3437 32.3156 19.7319 32.3156C20.1876 32.3245 20.4746 32.6019 20.4577 32.9866C20.4408 33.3623 20.1708 33.595 19.7235 33.595C19.3437 33.595 18.9724 33.595 18.5336 33.595C18.5336 34.266 18.542 34.9191 18.5336 35.5722C18.5336 35.7601 18.5083 36.0285 18.3901 36.1269C18.2213 36.27 17.9597 36.3595 17.7488 36.3327C17.4449 36.2969 17.3268 36.0106 17.3184 35.6974C17.3184 34.7401 17.3184 33.7828 17.3184 32.8255C17.3184 32.0203 17.3184 31.2241 17.3184 30.4189C17.3184 29.8642 17.5378 29.6405 18.061 29.6405C18.6855 29.6405 19.3015 29.6405 19.926 29.6405C20.3564 29.6405 20.6349 29.9089 20.6349 30.2847C20.6349 30.6604 20.3564 30.9199 19.9176 30.9199C19.4788 30.9199 19.0315 30.9199 18.5589 30.9199L18.5505 30.9288Z" fill="#0B3954"/>
</g>
<defs>
<clipPath id="clip0_807_3077">
<rect width="37.6129" height="44" fill="white" transform="translate(0.693359)"/>
</clipPath>
</defs>
</svg>
