<svg width="459" height="76" viewBox="0 0 459 76" fill="none" xmlns="http://www.w3.org/2000/svg">
<g clip-path="url(#clip0_807_2878)">
<path d="M49.9946 0.79541V74.7615H96.0775V30.8818L49.9946 0.79541ZM87.2887 65.9595H80.8291V57.1489H73.0361V65.9595H58.7835V17.0452L87.2887 35.6561V65.9509V65.9595Z" fill="#E45E55"/>
<path d="M0.5 74.7613H46.5743V65.9507H0.5V74.7613Z" fill="#E45E55"/>
<path d="M0.5 58.4772H46.5743V49.6665H0.5V58.4772Z" fill="#E45E55"/>
<path d="M0.5 42.1837H46.5743V33.373H0.5V42.1837Z" fill="#E45E55"/>
<path d="M21.6278 17.0884L8.13721 25.899H46.5743V17.0884H21.6192H21.6278Z" fill="#E45E55"/>
<path d="M33.0835 9.60607H46.5741V0.79541L33.0835 9.60607Z" fill="#E45E55"/>
<path d="M127.683 30.6733V74.77H116.972V30.6733H127.683Z" fill="#0B3954"/>
<path d="M174.804 74.7617H164.093L146.178 47.5659V74.7617H135.467V30.665H146.178L164.093 57.9911V30.665H174.804V74.7617Z" fill="#0B3954"/>
<path d="M232.378 30.6733V74.77H221.667V48.3294L211.83 74.77H203.18L193.283 48.2599V74.77H182.572V30.6733H195.231L207.57 61.2025L219.788 30.6733H232.378Z" fill="#0B3954"/>
<path d="M248.267 72.3138C244.821 70.3868 242.085 67.6958 240.058 64.241C238.032 60.7862 237.019 56.906 237.019 52.5918C237.019 48.2777 238.032 44.4062 240.058 40.9687C242.085 37.5399 244.821 34.8577 248.267 32.9306C251.713 31.0036 255.506 30.04 259.636 30.04C263.767 30.04 267.559 31.0036 271.005 32.9306C274.452 34.8577 277.162 37.5399 279.153 40.9687C281.136 44.4062 282.132 48.2777 282.132 52.5918C282.132 56.906 281.128 60.7862 279.128 64.241C277.119 67.6958 274.408 70.3868 270.979 72.3138C267.55 74.2409 263.775 75.2044 259.636 75.2044C255.497 75.2044 251.713 74.2409 248.267 72.3138ZM268.061 61.8886C270.174 59.5449 271.222 56.446 271.222 52.5918C271.222 48.7377 270.166 45.5867 268.061 43.2604C265.949 40.934 263.143 39.7708 259.636 39.7708C256.129 39.7708 253.255 40.9253 251.15 43.2256C249.038 45.526 247.99 48.6509 247.99 52.5832C247.99 56.5154 249.046 59.5883 251.15 61.9147C253.263 64.241 256.086 65.4042 259.636 65.4042C263.186 65.4042 265.957 64.2323 268.061 61.8886Z" fill="#0B3954"/>
<path d="M315.46 33.4341C318.924 35.2744 321.608 37.8611 323.513 41.1944C325.41 44.519 326.362 48.3645 326.362 52.7221C326.362 57.0796 325.41 60.8643 323.513 64.215C321.608 67.5656 318.915 70.1611 315.434 72.0013C311.945 73.8416 307.901 74.7617 303.312 74.7617H286.834V30.665H303.312C307.944 30.665 311.997 31.5852 315.469 33.4254L315.46 33.4341ZM312.075 62.1403C314.326 59.9182 315.46 56.7845 315.46 52.7221C315.46 48.6596 314.335 45.4999 312.075 43.2343C309.815 40.9687 306.663 39.8403 302.611 39.8403H297.536V65.465H302.611C306.663 65.465 309.815 64.3539 312.075 62.1403Z" fill="#0B3954"/>
<path d="M340.736 72.3138C337.29 70.3868 334.554 67.6958 332.528 64.241C330.501 60.7862 329.488 56.906 329.488 52.5918C329.488 48.2777 330.501 44.4062 332.528 40.9687C334.554 37.5399 337.29 34.8577 340.736 32.9306C344.183 31.0036 347.975 30.04 352.105 30.04C356.236 30.04 360.028 31.0036 363.475 32.9306C366.921 34.8577 369.631 37.5399 371.623 40.9687C373.606 44.4062 374.601 48.2777 374.601 52.5918C374.601 56.906 373.597 60.7862 371.597 64.241C369.588 67.6958 366.878 70.3868 363.449 72.3138C360.02 74.2409 356.244 75.2044 352.105 75.2044C347.966 75.2044 344.183 74.2409 340.736 72.3138ZM360.531 61.8886C362.643 59.5449 363.691 56.446 363.691 52.5918C363.691 48.7377 362.635 45.5867 360.531 43.2604C358.418 40.934 355.612 39.7708 352.105 39.7708C348.599 39.7708 345.724 40.9253 343.62 43.2256C341.507 45.526 340.459 48.6509 340.459 52.5832C340.459 56.5154 341.516 59.5883 343.62 61.9147C345.732 64.241 348.555 65.4042 352.105 65.4042C355.656 65.4042 358.426 64.2323 360.531 61.8886Z" fill="#0B3954"/>
<path d="M381.563 41.0031C383.442 37.5917 386.066 34.9355 389.425 33.0258C392.785 31.1248 396.604 30.1699 400.864 30.1699C406.085 30.1699 410.553 31.5501 414.268 34.3192C417.983 37.0796 420.468 40.8556 421.723 45.6211H409.947C409.073 43.7809 407.826 42.3746 406.215 41.4111C404.604 40.4476 402.777 39.9701 400.734 39.9701C397.435 39.9701 394.759 41.1246 392.716 43.425C390.672 45.7253 389.642 48.8068 389.642 52.661C389.642 56.5151 390.664 59.588 392.716 61.897C394.759 64.1973 397.435 65.3518 400.734 65.3518C402.777 65.3518 404.604 64.8744 406.215 63.9108C407.826 62.9473 409.064 61.5497 409.947 59.7008H421.723C420.468 64.4751 417.983 68.2337 414.268 70.9767C410.553 73.7197 406.077 75.0912 400.864 75.0912C396.604 75.0912 392.794 74.1364 389.425 72.2354C386.066 70.3344 383.442 67.6781 381.563 64.2928C379.684 60.8987 378.74 57.0272 378.74 52.6696C378.74 48.3121 379.684 44.4319 381.563 41.0205V41.0031Z" fill="#0B3954"/>
<path d="M434.313 73.6331C431.768 72.5828 429.733 71.0377 428.209 68.9891C426.685 66.9405 425.88 64.4666 425.793 61.576H437.197C437.361 63.2079 437.924 64.4579 438.885 65.3173C439.846 66.1766 441.102 66.602 442.643 66.602C444.185 66.602 445.483 66.2374 446.401 65.4996C447.319 64.7704 447.778 63.7548 447.778 62.4527C447.778 61.3677 447.414 60.4649 446.678 59.7531C445.951 59.0413 445.05 58.4597 443.985 57.991C442.92 57.5309 441.405 57.0101 439.439 56.4198C436.599 55.5431 434.279 54.6577 432.486 53.781C430.694 52.9042 429.144 51.6022 427.854 49.8834C426.555 48.1647 425.914 45.9252 425.914 43.1648C425.914 39.0589 427.395 35.8472 430.365 33.5208C433.326 31.1944 437.197 30.0312 441.959 30.0312C446.722 30.0312 450.713 31.1944 453.675 33.5208C456.636 35.8472 458.229 39.0763 458.437 43.2255H446.843C446.756 41.8019 446.237 40.6822 445.276 39.8662C444.314 39.0502 443.085 38.6423 441.578 38.6423C440.279 38.6423 439.24 38.9895 438.444 39.6752C437.647 40.3697 437.257 41.3592 437.257 42.6613C437.257 44.0849 437.924 45.196 439.266 45.9946C440.6 46.7932 442.687 47.6526 445.535 48.5727C448.376 49.5362 450.679 50.4563 452.463 51.3331C454.238 52.2098 455.77 53.4945 457.069 55.1611C458.359 56.8365 459.009 58.9892 459.009 61.6281C459.009 64.2669 458.368 66.4197 457.095 68.477C455.822 70.5255 453.969 72.1661 451.553 73.3727C449.129 74.588 446.271 75.1956 442.972 75.1956C439.673 75.1956 436.876 74.6748 434.322 73.6245L434.313 73.6331Z" fill="#0B3954"/>
</g>
<defs>
<clipPath id="clip0_807_2878">
<rect width="458.5" height="74.4088" fill="white" transform="translate(0.5 0.79541)"/>
</clipPath>
</defs>
</svg>
