<?xml version="1.0" encoding="UTF-8"?>
<svg id="Layer_2" data-name="Layer 2" xmlns="http://www.w3.org/2000/svg" viewBox="0 0 154.57 25.02" width="155px" height="26px">
  <defs>
    <style>
      .cls-1 {
        fill: #fff;
      }

      .cls-2 {
        fill: #e75e55;
      }
    </style>
  </defs>
  <g id="Layer_1-2" data-name="Layer 1">
    <g>
      <g>
        <path class="cls-2" d="M16.69,0V24.87h15.53V10.12L16.69,0Zm12.57,21.91h-2.18v-2.96h-2.63v2.96h-4.8V5.46l9.61,6.26v10.19Z"/>
        <g>
          <path class="cls-2" d="M0,24.87H15.53v-2.96H0v2.96Z"/>
          <path class="cls-2" d="M0,19.4H15.53v-2.96H0v2.96Z"/>
          <path class="cls-2" d="M0,13.92H15.53v-2.96H0v2.96Z"/>
          <polygon class="cls-2" points="10.99 2.96 15.53 2.96 15.53 0 15.53 0 10.99 2.96"/>
          <polygon class="cls-2" points="2.58 8.44 15.53 8.44 15.53 5.48 7.12 5.48 2.58 8.44"/>
        </g>
      </g>
      <g>
        <path class="cls-1" d="M42.88,10.05v14.83h-3.61V10.05h3.61Z"/>
        <path class="cls-1" d="M58.76,24.87h-3.61l-6.04-9.15v9.15h-3.61V10.05h3.61l6.04,9.19V10.05h3.61v14.83Z"/>
        <path class="cls-1" d="M78.17,10.05v14.83h-3.61V15.98l-3.32,8.89h-2.91l-3.34-8.91v8.91h-3.61V10.05h4.27l4.16,10.27,4.12-10.27h4.25Z"/>
        <path class="cls-1" d="M83.95,24.05c-1.16-.65-2.08-1.55-2.77-2.71-.68-1.16-1.02-2.47-1.02-3.92s.34-2.75,1.02-3.91c.68-1.15,1.61-2.06,2.77-2.7,1.16-.65,2.44-.97,3.83-.97s2.67,.32,3.83,.97c1.16,.65,2.08,1.55,2.75,2.7,.67,1.15,1,2.46,1,3.91s-.34,2.76-1.01,3.92c-.68,1.16-1.59,2.07-2.75,2.71-1.15,.65-2.43,.97-3.82,.97s-2.67-.32-3.83-.97Zm6.67-3.51c.71-.79,1.07-1.83,1.07-3.13s-.36-2.36-1.07-3.14c-.71-.78-1.66-1.17-2.84-1.17s-2.15,.39-2.86,1.16c-.71,.77-1.07,1.82-1.07,3.15s.36,2.36,1.07,3.14c.71,.78,1.66,1.17,2.86,1.17s2.13-.39,2.84-1.18Z"/>
        <path class="cls-1" d="M107.02,10.97c1.17,.62,2.07,1.49,2.71,2.61,.64,1.12,.96,2.41,.96,3.88s-.32,2.74-.96,3.87c-.64,1.13-1.55,2-2.72,2.62-1.18,.62-2.54,.93-4.09,.93h-5.55V10.05h5.55c1.56,0,2.93,.31,4.1,.93Zm-1.14,9.65c.76-.75,1.14-1.8,1.14-3.17s-.38-2.43-1.14-3.19c-.76-.76-1.82-1.14-3.19-1.14h-1.71v8.62h1.71c1.37,0,2.43-.37,3.19-1.12Z"/>
        <path class="cls-1" d="M115.12,24.05c-1.16-.65-2.08-1.55-2.77-2.71-.68-1.16-1.02-2.47-1.02-3.92s.34-2.75,1.02-3.91c.68-1.15,1.61-2.06,2.77-2.7,1.16-.65,2.44-.97,3.83-.97s2.67,.32,3.83,.97c1.16,.65,2.08,1.55,2.75,2.7,.67,1.15,1,2.46,1,3.91s-.34,2.76-1.01,3.92c-.68,1.16-1.59,2.07-2.75,2.71-1.15,.65-2.43,.97-3.82,.97s-2.67-.32-3.83-.97Zm6.67-3.51c.71-.79,1.07-1.83,1.07-3.13s-.36-2.36-1.07-3.14c-.71-.78-1.66-1.17-2.84-1.17s-2.15,.39-2.86,1.16c-.71,.77-1.07,1.82-1.07,3.15s.36,2.36,1.07,3.14c.71,.78,1.66,1.17,2.86,1.17s2.13-.39,2.84-1.18Z"/>
        <path class="cls-1" d="M128.46,13.52c.63-1.15,1.52-2.04,2.65-2.68,1.13-.64,2.42-.96,3.85-.96,1.76,0,3.27,.46,4.52,1.39,1.25,.93,2.09,2.2,2.51,3.8h-3.97c-.3-.62-.71-1.09-1.26-1.42-.54-.32-1.16-.49-1.85-.49-1.11,0-2.01,.39-2.7,1.16-.69,.77-1.03,1.81-1.03,3.1s.34,2.33,1.03,3.1c.69,.77,1.59,1.16,2.7,1.16,.69,0,1.31-.16,1.85-.49,.54-.32,.96-.8,1.26-1.42h3.97c-.42,1.61-1.26,2.87-2.51,3.79-1.25,.92-2.76,1.38-4.52,1.38-1.44,0-2.72-.32-3.85-.96-1.13-.64-2.02-1.53-2.65-2.67-.63-1.14-.95-2.44-.95-3.91s.32-2.77,.95-3.92Z"/>
        <path class="cls-1" d="M146.24,24.49c-.86-.35-1.55-.87-2.06-1.56-.51-.69-.79-1.52-.81-2.49h3.84c.06,.55,.25,.97,.57,1.26,.32,.29,.75,.43,1.27,.43s.96-.12,1.27-.37c.31-.25,.46-.59,.46-1.02,0-.37-.12-.67-.37-.91-.25-.24-.55-.44-.91-.59-.36-.15-.87-.33-1.53-.53-.96-.3-1.74-.59-2.34-.89-.61-.3-1.13-.73-1.56-1.31-.44-.58-.65-1.33-.65-2.26,0-1.38,.5-2.46,1.5-3.24,1-.78,2.3-1.17,3.91-1.17s2.95,.39,3.95,1.17c1,.78,1.53,1.87,1.61,3.26h-3.91c-.03-.48-.2-.86-.53-1.13-.32-.27-.74-.41-1.25-.41-.44,0-.79,.12-1.06,.35-.27,.23-.4,.57-.4,1,0,.48,.22,.85,.68,1.12,.45,.27,1.15,.56,2.11,.87,.96,.32,1.74,.63,2.33,.93,.6,.3,1.12,.73,1.55,1.29,.44,.56,.65,1.29,.65,2.18s-.21,1.61-.64,2.3c-.43,.69-1.05,1.24-1.87,1.65-.82,.41-1.78,.61-2.89,.61s-2.06-.18-2.91-.53Z"/>
      </g>
    </g>
  </g>
</svg>