<svg width="97" height="97" viewBox="0 0 97 97" fill="none" xmlns="http://www.w3.org/2000/svg">
<g clip-path="url(#clip0_601_1910)">
<path d="M39.3097 64.4675C24.9507 64.4675 13.3035 52.8811 13.3035 38.5972C13.3035 24.3133 24.9507 12.7269 39.3097 12.7269C53.6686 12.7269 65.3158 24.3133 65.3158 38.5972C65.3158 52.8811 53.6686 64.4675 39.3097 64.4675Z" stroke="#E55E55" stroke-miterlimit="10"/>
<path d="M94.3611 84.9248L92.0135 82.5894L91.3401 81.9196L68.9009 59.9416C73.2322 53.9131 75.7983 46.5629 75.7983 38.5973C75.7983 18.2849 59.2373 1.81042 38.8181 1.81042C18.399 1.81042 1.81982 18.2849 1.81982 38.5973C1.81982 58.9097 18.3808 75.3841 38.7999 75.3841C46.3707 75.3841 53.3954 73.1212 59.2555 69.2289L82.3317 91.8405L84.8431 94.3388C86.4628 95.95 89.8842 95.1354 92.5048 92.5284C95.1255 89.9215 95.9444 86.4999 94.3247 84.9067L94.3611 84.9248Z" stroke="#E55E55" stroke-width="2" stroke-miterlimit="10"/>
</g>
<defs>
<clipPath id="clip0_601_1910">
<rect width="97" height="97" fill="white"/>
</clipPath>
</defs>
</svg>
