<svg width="41" height="41" viewBox="0 0 41 41" fill="none" xmlns="http://www.w3.org/2000/svg">
<g clip-path="url(#clip0_835_20384)">
<path d="M38.9268 12.7143C37.9188 10.3334 36.4785 8.19296 34.6417 6.35829C32.8049 4.52151 30.6666 3.07908 28.2857 2.07318C25.8184 1.02931 23.1993 0.5 20.5 0.5C17.8007 0.5 15.1816 1.02931 12.7143 2.07318C10.3334 3.08119 8.19296 4.52151 6.35829 6.35829C4.52151 8.19507 3.07908 10.3334 2.07318 12.7143C1.02931 15.1816 0.5 17.8007 0.5 20.5C0.5 22.7164 0.860607 24.8969 1.57128 26.9762C2.18916 28.7792 3.05799 30.4789 4.1609 32.0373L1.11577 40.3208L10.4262 37.7817C13.4755 39.5616 16.9445 40.5 20.4979 40.5C23.1972 40.5 25.8163 39.9707 28.2836 38.9268C30.6645 37.9188 32.8049 36.4785 34.6396 34.6417C36.4764 32.8049 37.9167 30.6666 38.9247 28.2857C39.9686 25.8184 40.4979 23.1993 40.4979 20.5C40.4979 17.8007 39.9686 15.1816 38.9247 12.7143H38.9268ZM20.5 38.117C17.2145 38.117 14.0112 37.206 11.2339 35.4852L10.7931 35.2111L4.94749 36.8054L6.84332 31.6472L6.44897 31.1284C4.11451 28.0496 2.88296 24.3739 2.88296 20.4979C2.88296 10.7847 10.7847 2.88296 20.5 2.88296C30.2153 2.88296 38.117 10.7868 38.117 20.5C38.117 30.2132 30.2132 38.117 20.5 38.117Z" fill="#0A3854"/>
<path d="M28.7961 24.0555C28.5557 23.8214 28.3301 23.5536 28.0159 23.4165C27.6152 23.2267 27.1365 23.1972 26.7211 23.3553C26.4469 23.4439 26.2044 23.6105 26.0041 23.8151C25.4579 24.3591 24.9117 24.9053 24.3655 25.4536C23.7898 25.1436 23.2141 24.8273 22.6679 24.4688C21.7379 23.9036 20.8817 23.2204 20.1057 22.4591C19.2622 21.6303 18.5072 20.7067 17.8914 19.6965C17.7143 19.4182 17.5351 19.1419 17.379 18.8509C17.223 18.5641 17.0437 18.2878 16.9066 17.9905C17.3917 17.497 17.8851 17.012 18.3723 16.5228C18.5283 16.3773 18.6654 16.2149 18.794 16.0441C18.9859 15.7425 19.1103 15.3882 19.0935 15.0276C19.0998 14.589 18.9016 14.1651 18.5958 13.8551C17.5878 12.845 16.5777 11.837 15.5696 10.829C15.3714 10.635 15.1858 10.422 14.9391 10.2849C14.53 10.0614 14.0239 9.99177 13.581 10.1563C13.2647 10.2427 12.9969 10.4473 12.767 10.675C12.514 10.9302 12.2609 11.1832 12.0057 11.4384C11.934 11.5059 11.9024 11.6029 11.8497 11.683C11.2424 12.5013 10.886 13.4966 10.8037 14.511C10.7215 15.2638 10.7362 16.0314 10.8691 16.78C11.0209 17.8345 11.3984 18.8446 11.8729 19.7935C12.8219 21.6409 14.1567 23.2541 15.5675 24.764C16.0589 25.268 16.5313 25.791 17.0542 26.2655C17.611 26.8032 18.1951 27.3094 18.7961 27.7944C19.3444 28.2014 19.878 28.6295 20.4579 28.9901C20.9239 29.3148 21.4237 29.5869 21.9151 29.8716C22.2715 30.0529 22.6278 30.2322 22.9906 30.403C23.3955 30.5633 23.7877 30.7552 24.2052 30.8775C24.5279 31.0103 24.8695 31.0905 25.2027 31.1938C25.5401 31.2634 25.8691 31.3667 26.2107 31.4089C26.5966 31.4679 26.9825 31.5291 27.3727 31.5333C27.6806 31.5671 27.9948 31.5565 28.2985 31.4932C28.5747 31.4342 28.8552 31.3941 29.1209 31.2929C29.6903 31.1137 30.2301 30.8332 30.7109 30.4789C30.8986 30.3903 31.0252 30.2195 31.1749 30.0803C31.4975 29.7472 31.8834 29.4582 32.0985 29.0365C32.2019 28.8024 32.2841 28.5557 32.2947 28.2984V28.2204C32.282 27.7859 32.107 27.3579 31.797 27.05C30.7995 26.0504 29.7999 25.055 28.8046 24.0555H28.7961Z" fill="#0A3854"/>
</g>
<defs>
<clipPath id="clip0_835_20384">
<rect width="40" height="40" fill="white" transform="translate(0.5 0.5)"/>
</clipPath>
</defs>
</svg>
